<svg width="4" height="4" viewBox="0 0 4 4" fill="none" xmlns="http://www.w3.org/2000/svg">
<path d="M1.32667 4H0.223333V0.0933334H0.663333C0.781111 0.0933334 0.958889 0.0888889 1.19667 0.0800001C1.43444 0.068889 1.63 0.0633335 1.78333 0.0633335C2.21444 0.0633335 2.54111 0.177778 2.76333 0.406667C2.98556 0.635556 3.09667 0.978889 3.09667 1.43667C3.09667 1.71222 3.06 1.96333 2.98667 2.19C2.91556 2.41444 2.81889 2.59889 2.69667 2.74333C2.57444 2.88778 2.43556 2.99889 2.28 3.07667C2.12444 3.15444 1.96 3.19333 1.78667 3.19333C1.76444 3.19333 1.74111 3.19333 1.71667 3.19333C1.69444 3.19333 1.67333 3.19333 1.65333 3.19333C1.63556 3.19111 1.61333 3.19 1.58667 3.19C1.56222 3.18778 1.54222 3.18667 1.52667 3.18667C1.51333 3.18444 1.49333 3.18333 1.46667 3.18333C1.44222 3.18111 1.42556 3.18 1.41667 3.18C1.40778 3.18 1.39111 3.17889 1.36667 3.17667C1.34222 3.17444 1.32889 3.17333 1.32667 3.17333V4ZM2.00333 1.29C2.00333 1.12556 1.95889 0.992222 1.87 0.89C1.78111 0.787778 1.65333 0.736667 1.48667 0.736667H1.32667V2.47H1.45C1.62556 2.47 1.76111 2.41111 1.85667 2.29333C1.95444 2.17556 2.00333 2.00556 2.00333 1.78333V1.29Z" fill="#FFAD05"/>
</svg>
