<svg width="102" height="23" viewBox="0 0 102 23" fill="none" xmlns="http://www.w3.org/2000/svg">
<path d="M5.63333 22H0.116667V2.46667H2.31667C2.90556 2.46667 3.79444 2.44444 4.98333 2.4C6.17222 2.34445 7.15 2.31667 7.91667 2.31667C10.0722 2.31667 11.7056 2.88889 12.8167 4.03333C13.9278 5.17778 14.4833 6.89445 14.4833 9.18333C14.4833 10.5611 14.3 11.8167 13.9333 12.95C13.5778 14.0722 13.0944 14.9944 12.4833 15.7167C11.8722 16.4389 11.1778 16.9944 10.4 17.3833C9.62222 17.7722 8.8 17.9667 7.93333 17.9667C7.82222 17.9667 7.70556 17.9667 7.58333 17.9667C7.47222 17.9667 7.36667 17.9667 7.26667 17.9667C7.17778 17.9556 7.06667 17.95 6.93333 17.95C6.81111 17.9389 6.71111 17.9333 6.63333 17.9333C6.56667 17.9222 6.46667 17.9167 6.33333 17.9167C6.21111 17.9056 6.12778 17.9 6.08333 17.9C6.03889 17.9 5.95556 17.8944 5.83333 17.8833C5.71111 17.8722 5.64444 17.8667 5.63333 17.8667V22ZM9.01667 8.45C9.01667 7.62778 8.79444 6.96111 8.35 6.45C7.90556 5.93889 7.26667 5.68333 6.43333 5.68333H5.63333V14.35H6.25C7.12778 14.35 7.80556 14.0556 8.28333 13.4667C8.77222 12.8778 9.01667 12.0278 9.01667 10.9167V8.45ZM21.3083 22H15.925V11.2167L14.925 10.6V8.71667L18.5083 7.83333H19.8583L20.3417 11.8C20.7972 9.07778 22.2583 7.71667 24.725 7.71667C25.0028 7.71667 25.2917 7.76667 25.5917 7.86667L25.025 13.8C24.7917 13.5889 24.2806 13.4833 23.4917 13.4833C22.3583 13.4833 21.6306 13.7833 21.3083 14.3833V22ZM34.3947 13.3833C34.3947 11.9722 34.3224 10.9722 34.178 10.3833C34.0336 9.79444 33.7669 9.5 33.378 9.5C33.0447 9.5 32.7724 9.56111 32.5613 9.68333C32.3502 9.79444 32.1947 9.97778 32.0947 10.2333C31.9947 10.4778 31.928 10.7333 31.8947 11C31.8724 11.2556 31.8613 11.5833 31.8613 11.9833V13.3833H34.3947ZM33.0613 22.35C31.8169 22.35 30.7336 22.1611 29.8113 21.7833C28.9002 21.4056 28.178 20.8778 27.6447 20.2C27.1224 19.5222 26.7391 18.7611 26.4947 17.9167C26.2502 17.0611 26.128 16.1111 26.128 15.0667C26.128 12.5778 26.7613 10.6944 28.028 9.41667C29.2947 8.13889 31.0669 7.5 33.3447 7.5C35.5336 7.5 37.1002 8.01667 38.0447 9.05C38.9891 10.0722 39.4613 11.7222 39.4613 14V15.85H31.8447V16.1667C31.8447 16.8222 31.9113 17.3611 32.0447 17.7833C32.1891 18.2056 32.3947 18.5167 32.6613 18.7167C32.928 18.9167 33.2002 19.05 33.478 19.1167C33.7558 19.1833 34.0947 19.2167 34.4947 19.2167C34.8836 19.2167 35.3002 19.1667 35.7447 19.0667C36.2002 18.9667 36.6558 18.8111 37.1113 18.6C37.578 18.3889 37.9669 18.1389 38.278 17.85L39.2613 19.5333C38.8502 20.2 38.2447 20.7611 37.4447 21.2167C36.6558 21.6611 35.8947 21.9611 35.1613 22.1167C34.428 22.2722 33.728 22.35 33.0613 22.35ZM45.6501 22.35C44.6057 22.35 43.5501 22.1778 42.4835 21.8333C41.4168 21.4778 40.7335 21.1333 40.4335 20.8L40.8668 18.1167C41.2446 18.4833 41.8724 18.8 42.7501 19.0667C43.639 19.3333 44.5446 19.4667 45.4668 19.4667C46.1335 19.4667 46.589 19.3833 46.8335 19.2167C47.089 19.05 47.2168 18.8167 47.2168 18.5167C47.2168 18.2278 46.9946 17.9722 46.5501 17.75C46.1057 17.5167 45.3835 17.25 44.3835 16.95C41.7946 16.1722 40.5001 14.5611 40.5001 12.1167C40.5001 11.1167 40.789 10.2611 41.3668 9.55C41.9446 8.82778 42.6835 8.30556 43.5835 7.98333C44.4835 7.66111 45.489 7.5 46.6001 7.5C48.5001 7.5 49.9001 7.85 50.8001 8.55C51.0001 8.73889 51.1001 8.83333 51.1001 8.83333L50.3668 11.2167C49.6335 10.4944 48.6224 10.1333 47.3335 10.1333C46.2779 10.1333 45.7501 10.4444 45.7501 11.0667C45.7501 11.2444 45.789 11.3944 45.8668 11.5167C45.9446 11.6278 46.0724 11.7278 46.2501 11.8167C46.439 11.8944 46.6224 11.9611 46.8001 12.0167C46.9779 12.0611 47.2279 12.1278 47.5501 12.2167C47.8724 12.2944 48.1501 12.3667 48.3835 12.4333C49.6835 12.8667 50.6279 13.4778 51.2168 14.2667C51.8057 15.0556 52.1001 16.0389 52.1001 17.2167C52.1001 20.6389 49.9501 22.35 45.6501 22.35ZM57.4227 22.35C55.9227 22.35 54.8727 21.9 54.2727 21C53.6838 20.1 53.3893 18.5778 53.3893 16.4333V10.7667H52.2393V8.45L54.206 7.83333L55.906 3.95H58.8393V7.83333H61.5727V10.7667H58.7893V16.9667C58.7893 17.8556 58.9171 18.4444 59.1727 18.7333C59.4282 19.0222 59.8227 19.1667 60.356 19.1667C60.5893 19.1667 60.8004 19.1389 60.9893 19.0833C61.1782 19.0278 61.3338 18.95 61.456 18.85V21.1167C61.2893 21.2833 61.0727 21.45 60.806 21.6167C60.5393 21.7722 60.0949 21.9333 59.4727 22.1C58.8615 22.2667 58.1782 22.35 57.4227 22.35ZM69.7441 20.35C70.233 20.35 70.6053 20.15 70.8608 19.75C71.1275 19.3389 71.2608 18.7778 71.2608 18.0667V12.8C71.2608 10.6333 70.7497 9.55 69.7275 9.55C69.2497 9.55 68.8775 9.74444 68.6108 10.1333C68.3441 10.5222 68.2108 11.0722 68.2108 11.7833V17.2C68.2108 19.3 68.7219 20.35 69.7441 20.35ZM69.6108 22.35C67.0664 22.35 65.2053 21.7722 64.0275 20.6167C62.8497 19.4611 62.2608 17.6167 62.2608 15.0833C62.2608 12.5722 62.8553 10.6833 64.0441 9.41667C65.233 8.13889 67.1664 7.5 69.8441 7.5C72.4553 7.5 74.3386 8.11111 75.4941 9.33333C76.6608 10.5444 77.2441 12.3833 77.2441 14.85C77.2441 17.4056 76.6275 19.2944 75.3941 20.5167C74.1719 21.7389 72.2441 22.35 69.6108 22.35ZM80.7598 22.3167L78.0264 19.5667V18.9833L80.7598 16.25H81.3931L84.2431 18.9833V19.5667L81.3931 22.3167H80.7598ZM85.8957 22V11.2167L84.8957 10.6V8.81667L88.479 7.83333H91.2624V22H85.8957ZM88.3124 6.3L85.579 3.55V2.96667L88.3124 0.233333H88.9457L91.7957 2.96667V3.55L88.9457 6.3H88.3124ZM97.4617 22.35C95.9617 22.35 94.9117 21.9 94.3117 21C93.7228 20.1 93.4284 18.5778 93.4284 16.4333V10.7667H92.2784V8.45L94.2451 7.83333L95.9451 3.95H98.8784V7.83333H101.612V10.7667H98.8284V16.9667C98.8284 17.8556 98.9562 18.4444 99.2117 18.7333C99.4673 19.0222 99.8617 19.1667 100.395 19.1667C100.628 19.1667 100.839 19.1389 101.028 19.0833C101.217 19.0278 101.373 18.95 101.495 18.85V21.1167C101.328 21.2833 101.112 21.45 100.845 21.6167C100.578 21.7722 100.134 21.9333 99.5117 22.1C98.9006 22.2667 98.2173 22.35 97.4617 22.35Z" fill="#FFAD05"/>
</svg>
